<svg class="_1Sa22" version="1.1" viewBox="0 0 32 32" width="32" height="32" aria-labelledby="icon-title-485 icon-desc-486" aria-hidden="false"><path d="M0 2v10c0 1.106 0.896 2 2 2h10c1.104 0 2-0.894 2-2v-10c0-1.106-0.896-2-2-2h-10c-1.104 0-2 0.894-2 2zM2 18c-1.104 0-2 0.894-2 2v10c0 1.106 0.896 2 2 2h10c1.104 0 2-0.894 2-2v-10c0-1.106-0.896-2-2-2h-10zM20 18c-1.106 0-2 0.894-2 2v10c0 1.106 0.894 2 2 2h10c1.106 0 2-0.894 2-2v-10c0-1.106-0.894-2-2-2h-10zM20 0c-1.106 0-2 0.894-2 2v10c0 1.106 0.894 2 2 2h10c1.106 0 2-0.894 2-2v-10c0-1.106-0.894-2-2-2h-10z"></path></svg>